<svg width="29" height="25" viewBox="0 0 29 25" fill="none" xmlns="http://www.w3.org/2000/svg">
<g clip-path="url(#clip0_14680_366)">
<path d="M25.6985 0.706121C25.6426 0.670704 25.5877 0.643621 25.5328 0.615496C24.8606 0.260047 24.1121 0.0755097 23.3526 0.0779962H23.3443C22.5136 0.0792824 21.6976 0.298929 20.9772 0.715159C20.2569 1.13139 19.6572 1.72975 19.2377 2.45091L19.2253 2.47383C18.8857 3.06258 18.6799 3.7196 18.6225 4.39779L18.6215 4.4155H8.67861L7.56625 1.71862C7.31651 1.10816 6.85858 0.607238 6.27468 0.305782C5.69078 0.00432619 5.01916 -0.0779133 4.3804 0.0738295L4.39904 0.0696628L1.03711 0.838413L1.24529 1.76133L4.60722 0.992579C5.02546 0.896711 5.46392 0.952263 5.84546 1.14946C6.227 1.34666 6.52716 1.67287 6.69314 2.0707L6.69729 2.0832L7.66257 4.41654H1.34886L11.9059 15.0342V22.8082C9.45436 22.9832 7.76304 23.7999 7.76304 24.8134V25.002H17.9379V24.8134C17.9379 23.8009 16.2435 22.9801 13.795 22.8082V15.0342L20.3024 8.48945C20.5065 8.66341 20.7343 8.82487 20.9746 8.96654L20.9974 8.97904C22.0858 9.60151 23.3749 9.76544 24.583 9.43501C25.7912 9.10459 26.8202 8.30667 27.4453 7.21559C28.0704 6.1245 28.2407 4.82895 27.919 3.61198C27.5973 2.39501 26.8098 1.35555 25.7285 0.720704L25.7058 0.708204L25.6985 0.706121ZM26.7332 4.35925L24.1501 4.36654L25.4354 2.11654C26.1374 2.66114 26.6019 3.4584 26.7311 4.3405L26.7332 4.35925ZM24.6224 1.64154L23.3371 3.89779L22.0383 1.65508C22.4534 1.48292 22.8984 1.39512 23.3474 1.39675C23.8063 1.39675 24.2444 1.48633 24.6452 1.64987L24.6224 1.64154ZM20.3646 3.13008C20.5904 2.73529 20.8783 2.403 21.219 2.13529L21.2263 2.13008L22.5251 4.37279L19.9482 4.38008C20.0062 3.91237 20.1533 3.48945 20.3729 3.11341L20.3646 3.12904V3.13008ZM4.51504 5.73529H8.20322L8.71072 6.97175H5.74547L4.51504 5.73529ZM19.941 6.97279H19.0989V6.97904H9.72261L9.21511 5.74258H21.161L19.941 6.97279ZM22.059 8.04154L23.3443 5.78529L24.6431 8.028C24.2568 8.19258 23.8073 8.28841 23.336 8.28841C22.8762 8.28841 22.437 8.19779 22.0362 8.03216L22.059 8.04154ZM26.3168 6.56029C26.0987 6.94403 25.8089 7.28181 25.4634 7.55508L25.4561 7.56029L24.1574 5.31758L26.7342 5.31133C26.6746 5.75648 26.53 6.18587 26.3085 6.57591L26.3179 6.55925L26.3168 6.56029Z" fill="#7E8FDD"/>
</g>
<defs>
<clipPath id="clip0_14680_366">
<rect width="29" height="25" fill="white"/>
</clipPath>
</defs>
</svg>
